<svg width="27" height="22" viewBox="0 0 27 22" fill="none" xmlns="http://www.w3.org/2000/svg">
<path d="M2.25 21.5C1.00734 21.5 0 20.4922 0 19.25V2.75C0 1.50734 1.00734 0.5 2.25 0.5H24.75C25.9922 0.5 27 1.50734 27 2.75V2.86391H23.4609L22.6641 5.09375L21.8719 2.86391H17.3156V5.825L15.9984 2.86391H12.3141L8.48438 11.5203H11.5688V19.1984H21.1172L22.6125 17.5531L24.1078 19.1984H27V19.25C27 20.4922 25.9922 21.5 24.75 21.5H2.25ZM22.6219 16.0625L20.6437 18.2328H18.3047L21.4688 14.8719L18.3047 11.4734H20.7141L22.6594 13.6625L24.6281 11.4734H27L23.8125 14.8531L27 18.2328H24.5906L22.6219 16.0625ZM27 12.9172V16.8219L25.1578 14.8578L27 12.9172ZM14.4188 16.6766H18.3094V18.2328H12.5906V11.5203H18.3094V13.0719H14.4188V14.1219H18.2109V15.6359H14.4188V16.6813V16.6766ZM25.1859 5.82969L23.4562 10.5453H21.8438L20.1188 5.84375V10.5453H18.3047V3.82812H21.1734L22.6688 8.01406L24.1781 3.82812H27V10.5453H25.1859V5.82969ZM15.6797 9.2H12.5906L12.0328 10.5453H10.0172L12.9422 3.82812H15.3422L18.3094 10.5453H16.2422L15.6797 9.2ZM14.1328 5.49219L13.2188 7.69062H15.0422L14.1328 5.49219Z" fill="#4B5563"/>
</svg>
