<svg width="45" height="36" viewBox="0 0 45 36" fill="none" xmlns="http://www.w3.org/2000/svg">
<path d="M14.8922 0C15.4407 0 15.8977 0.400781 16.0664 0.928125C16.9313 3.64922 19.4836 5.625 22.5 5.625C25.5164 5.625 28.0688 3.64922 28.9336 0.928125C29.1024 0.400781 29.5594 0 30.1078 0H30.9938C32.5758 0 34.1016 0.555469 35.318 1.56797L44.1914 8.95781C44.6555 9.34453 44.9438 9.90703 44.993 10.5117C45.0422 11.1164 44.8453 11.7141 44.4446 12.1711L40.5071 16.6711C39.7055 17.5922 38.3133 17.6977 37.3711 16.9172L33.75 13.9008V31.5C33.75 33.982 31.7321 36 29.25 36H15.75C13.268 36 11.25 33.982 11.25 31.5V13.9008L7.62893 16.9172C6.69378 17.6977 5.30159 17.5922 4.493 16.6711L0.555497 12.1711C0.154716 11.7141 -0.0421594 11.1164 0.00705934 10.5117C0.0562781 9.90703 0.344559 9.34453 0.808622 8.95781L9.68206 1.56797C10.8985 0.555469 12.4242 0 14.0063 0H14.8922Z" fill="#0983AC"/>
</svg>
