<svg width="11" height="14" viewBox="0 0 11 14" fill="none" xmlns="http://www.w3.org/2000/svg">
<path d="M4.79354 0.293701C5.18416 -0.0969238 5.81854 -0.0969238 6.20916 0.293701L10.2092 4.2937C10.4967 4.5812 10.581 5.00933 10.4248 5.38433C10.2685 5.75933 9.90604 6.00308 9.49979 6.00308H1.49979C1.09666 6.00308 0.731037 5.75933 0.574787 5.38433C0.418537 5.00933 0.506037 4.5812 0.790412 4.2937L4.79041 0.293701H4.79354ZM4.79354 13.7093L0.793537 9.70933C0.506037 9.42183 0.421662 8.9937 0.577912 8.6187C0.734162 8.2437 1.09666 7.99995 1.50291 7.99995H9.49979C9.90291 7.99995 10.2685 8.2437 10.4248 8.6187C10.581 8.9937 10.4935 9.42183 10.2092 9.70933L6.20916 13.7093C5.81854 14.1 5.18416 14.1 4.79354 13.7093Z" fill="#4B5563"/>
</svg>
