<svg width="27" height="24" viewBox="0 0 27 24" fill="none" xmlns="http://www.w3.org/2000/svg">
<g clip-path="url(#clip0_63_470)">
<path d="M0 0H27V24H0V0Z" stroke="#E5E7EB"/>
<path d="M8.73281 12.1031C8.73281 12.675 8.27812 13.1109 7.70156 13.1109C7.27031 13.1109 6.95156 12.8672 6.95156 12.4078C6.95156 11.8359 7.39687 11.3766 7.96875 11.3766C8.40469 11.3766 8.73281 11.6438 8.73281 12.1031ZM3.77344 9.82969H3.55313C3.48281 9.82969 3.4125 9.87656 3.40312 9.95625L3.20156 11.2078L3.58594 11.1938C4.10156 11.1938 4.5 11.1234 4.59375 10.5281C4.70156 9.9 4.30312 9.82969 3.77344 9.82969ZM17.0859 9.82969H16.875C16.7906 9.82969 16.7344 9.87656 16.725 9.95625L16.5281 11.2078L16.9031 11.1938C17.5125 11.1938 17.9344 11.0531 17.9344 10.35C17.9297 9.85313 17.4844 9.82969 17.0859 9.82969ZM27 3.75V20.25C27 21.4922 25.9922 22.5 24.75 22.5H2.25C1.00781 22.5 0 21.4922 0 20.25V3.75C0 2.50781 1.00781 1.5 2.25 1.5H24.75C25.9922 1.5 27 2.50781 27 3.75ZM6.01406 10.0969C6.01406 9.1125 5.25469 8.78437 4.3875 8.78437H2.5125C2.39531 8.78437 2.27813 8.87813 2.26875 9.00469L1.5 13.7906C1.48594 13.8844 1.55625 13.9781 1.65 13.9781H2.54063C2.66719 13.9781 2.78437 13.8422 2.79844 13.7109L3.00937 12.4641C3.05625 12.1266 3.62812 12.2438 3.85312 12.2438C5.19375 12.2438 6.01406 11.4469 6.01406 10.0969ZM9.96094 10.5094H9.07031C8.89219 10.5094 8.88281 10.7672 8.87344 10.8937C8.60156 10.4953 8.20781 10.425 7.7625 10.425C6.61406 10.425 5.7375 11.4328 5.7375 12.5438C5.7375 13.4578 6.30938 14.0531 7.22344 14.0531C7.64531 14.0531 8.17031 13.8234 8.46563 13.4953C8.44219 13.5656 8.41875 13.7156 8.41875 13.7859C8.41875 13.8938 8.46562 13.9734 8.56875 13.9734H9.375C9.50156 13.9734 9.60938 13.8375 9.63281 13.7062L10.1109 10.6922C10.125 10.6031 10.0547 10.5094 9.96094 10.5094ZM11.8594 15.0984L14.8453 10.7578C14.8688 10.7344 14.8688 10.7109 14.8688 10.6781C14.8688 10.5984 14.7984 10.5141 14.7188 10.5141H13.8187C13.7391 10.5141 13.6547 10.5609 13.6078 10.6313L12.3656 12.4594L11.85 10.7016C11.8125 10.5984 11.7094 10.5141 11.5922 10.5141H10.7156C10.6359 10.5141 10.5656 10.5984 10.5656 10.6781C10.5656 10.7344 11.4797 13.3406 11.5594 13.5891C11.4328 13.7672 10.5984 14.9297 10.5984 15.0703C10.5984 15.1547 10.6687 15.2203 10.7484 15.2203H11.6484C11.7328 15.2156 11.8125 15.1688 11.8594 15.0984ZM19.3266 10.0969C19.3266 9.1125 18.5672 8.78437 17.7 8.78437H15.8391C15.7125 8.78437 15.5953 8.87813 15.5812 9.00469L14.8219 13.7859C14.8125 13.8797 14.8828 13.9734 14.9719 13.9734H15.9328C16.0266 13.9734 16.0969 13.9031 16.1203 13.8234L16.3312 12.4641C16.3781 12.1266 16.95 12.2438 17.175 12.2438C18.5063 12.2438 19.3266 11.4469 19.3266 10.0969ZM23.2734 10.5094H22.3828C22.2047 10.5094 22.1953 10.7672 22.1813 10.8937C21.9234 10.4953 21.525 10.425 21.0703 10.425C19.9219 10.425 19.0453 11.4328 19.0453 12.5438C19.0453 13.4578 19.6172 14.0531 20.5312 14.0531C20.9672 14.0531 21.4922 13.8234 21.7734 13.4953C21.7594 13.5656 21.7266 13.7156 21.7266 13.7859C21.7266 13.8938 21.7734 13.9734 21.8766 13.9734H22.6875C22.8141 13.9734 22.9219 13.8375 22.9453 13.7062L23.4234 10.6922C23.4375 10.6031 23.3672 10.5094 23.2734 10.5094ZM25.5 8.94844C25.5 8.85469 25.4297 8.78437 25.35 8.78437H24.4828C24.4125 8.78437 24.3422 8.84063 24.3328 8.91094L23.5734 13.7859L23.5594 13.8094C23.5594 13.8938 23.6297 13.9734 23.7234 13.9734H24.4969C24.6141 13.9734 24.7312 13.8375 24.7406 13.7062L25.5 8.9625V8.94844ZM21.2812 11.3766C20.7094 11.3766 20.2641 11.8313 20.2641 12.4078C20.2641 12.8625 20.5922 13.1109 21.0234 13.1109C21.5859 13.1109 22.0406 12.6797 22.0406 12.1031C22.0453 11.6438 21.7172 11.3766 21.2812 11.3766Z" fill="#4B5563"/>
</g>
<defs>
<clipPath id="clip0_63_470">
<rect width="27" height="24" fill="white"/>
</clipPath>
</defs>
</svg>
