<svg width="27" height="22" viewBox="0 0 27 22" fill="none" xmlns="http://www.w3.org/2000/svg">
<path d="M23.0062 14.5344L22.5162 14.6335L22.5972 15.0344H23.0062H24.75H25.365L25.2395 14.4323L23.7207 7.14795L23.6378 6.75H23.2313H21.7734C21.5059 6.75 21.2119 6.78785 20.942 6.93758C20.6609 7.09351 20.4585 7.34118 20.3269 7.66386L18.6046 11.7748C18.5463 11.3963 18.3924 11.048 18.1419 10.734C17.8184 10.3283 17.3507 10.0001 16.7724 9.72168C16.4346 9.55156 16.2145 9.43331 16.0759 9.32705C16.0464 9.30438 16.0255 9.28604 16.0109 9.27184C16.0168 9.267 16.024 9.26164 16.0327 9.25584C16.1038 9.20829 16.2662 9.14219 16.5703 9.14219V9.14232L16.5818 9.14206C17.0991 9.13021 17.4744 9.24965 17.7664 9.37467L17.9271 9.45056L18.5269 9.73379L18.6341 9.07921L18.8919 7.50421L18.9571 7.10555L18.5811 6.95799C18.1644 6.7945 17.5116 6.61406 16.7109 6.61406C14.7088 6.61406 13.0458 7.71264 13.0328 9.51842C13.024 10.213 13.342 10.7428 13.7347 11.1291C14.1187 11.5068 14.5938 11.7685 14.9616 11.95L14.9627 11.9505C15.3193 12.1253 15.5063 12.2465 15.6021 12.3357C15.6451 12.3758 15.6561 12.3972 15.6574 12.4C15.6581 12.4014 15.6578 12.4009 15.6575 12.3997C15.6573 12.3988 15.6576 12.3998 15.6578 12.4035C15.6565 12.4193 15.6453 12.4553 15.5513 12.5068C15.4303 12.5732 15.2386 12.6188 15.0281 12.6188C14.3634 12.6188 14.0294 12.5228 13.4688 12.2749L13.2258 12.1603L12.6242 11.8765L12.5188 12.5333L12.2563 14.1692L12.196 14.5449L12.542 14.7031C13.0624 14.9412 13.9511 15.1275 14.8444 15.1375V15.1375L14.8488 15.1375C15.9087 15.14 16.837 14.8809 17.5171 14.3707L17.239 15.0344H17.9906H19.9688H20.3204L20.4393 14.7035L19.9688 14.5344L20.4393 14.7035L20.4393 14.7034L20.4393 14.7033L20.4395 14.7028L20.4402 14.7009L20.4429 14.6933L20.4533 14.6645L20.4909 14.5599L20.6097 14.2297C20.6444 14.1333 20.6803 14.0337 20.7133 13.9422H22.3751C22.3916 14.022 22.4086 14.1051 22.425 14.1851L22.489 14.4995L22.5088 14.5973L22.5143 14.6241L22.5157 14.6311L22.5161 14.6329L22.5161 14.6333L22.5162 14.6335L22.5162 14.6335L23.0062 14.5344ZM15.9855 9.29842C15.9848 9.30081 15.9842 9.30192 15.984 9.30188C15.9838 9.30184 15.9842 9.30065 15.9855 9.29842ZM15.9795 9.23423C15.9797 9.23424 15.981 9.2361 15.9824 9.23974C15.9799 9.23604 15.9792 9.23422 15.9795 9.23423ZM21.6235 11.4516C21.6719 11.32 21.7226 11.1819 21.7725 11.0462C21.8009 11.1843 21.8294 11.3224 21.8562 11.4516H21.6235ZM7.14844 15.025H7.4847L7.61151 14.7136L10.1752 8.41799L9.20015 14.4546L9.10651 15.0344H9.69375H11.5734H11.9989L12.067 14.6144L13.2482 7.33004L13.3423 6.75H12.7547H10.8703H10.8544H10.4446H10.1109H8.11875H7.77087L7.64993 7.07618L6.42278 10.3861L5.90941 7.76786L5.90774 7.75935L5.90578 7.75091C5.82588 7.40699 5.64608 7.13864 5.3725 6.9667C5.11838 6.807 4.8317 6.76158 4.58833 6.75052L4.57698 6.75H4.56563H1.53281H1.13313L1.04509 7.13987L1.01228 7.28518L0.904962 7.76044L1.37729 7.88002C2 8.03767 2.55745 8.25723 3.04843 8.52715L4.67295 14.6532L4.77156 15.025H5.15625H7.14844ZM26.5 2.75V19.25C26.5 20.216 25.716 21 24.75 21H2.25C1.28395 21 0.5 20.216 0.5 19.25V2.75C0.5 1.78395 1.28395 1 2.25 1H24.75C25.716 1 26.5 1.78395 26.5 2.75Z" fill="#4B5563" stroke="black"/>
</svg>
